<mxfile host="app.diagrams.net" modified="2022-09-17T08:47:13.442Z" agent="5.0 (Windows NT 10.0; Win64; x64) AppleWebKit/537.36 (KHTML, like Gecko) Chrome/105.0.0.0 Safari/537.36" etag="CbpR2VDsikU2LvJ2ywHi" version="20.3.2" type="github">
  <diagram id="kgpKYQtTHZ0yAKxKKP6v" name="Page-1">
    <mxGraphModel dx="1512" dy="328" grid="1" gridSize="10" guides="1" tooltips="1" connect="1" arrows="1" fold="1" page="1" pageScale="1" pageWidth="850" pageHeight="1100" math="0" shadow="0">
      <root>
        <mxCell id="0" />
        <mxCell id="1" parent="0" />
        <mxCell id="3nuBFxr9cyL0pnOWT2aG-1" value="친구목록조회" style="shape=umlLifeline;perimeter=lifelinePerimeter;container=1;collapsible=0;recursiveResize=0;rounded=0;shadow=0;strokeWidth=1;fillColor=#fff2cc;strokeColor=default;" parent="1" vertex="1">
          <mxGeometry x="-200" y="80" width="100" height="2440" as="geometry" />
        </mxCell>
        <mxCell id="3nuBFxr9cyL0pnOWT2aG-2" value="" style="points=[];perimeter=orthogonalPerimeter;rounded=0;shadow=0;strokeWidth=1;" parent="3nuBFxr9cyL0pnOWT2aG-1" vertex="1">
          <mxGeometry x="45" y="70" width="10" height="160" as="geometry" />
        </mxCell>
        <mxCell id="3nuBFxr9cyL0pnOWT2aG-5" value="친구목록DB" style="shape=umlLifeline;perimeter=lifelinePerimeter;container=1;collapsible=0;recursiveResize=0;rounded=0;shadow=0;strokeWidth=1;fillColor=#dae8fc;strokeColor=default;" parent="1" vertex="1">
          <mxGeometry x="-20" y="80" width="100" height="2430" as="geometry" />
        </mxCell>
        <mxCell id="3nuBFxr9cyL0pnOWT2aG-6" value="" style="points=[];perimeter=orthogonalPerimeter;rounded=0;shadow=0;strokeWidth=1;" parent="3nuBFxr9cyL0pnOWT2aG-5" vertex="1">
          <mxGeometry x="45" y="80" width="10" height="100" as="geometry" />
        </mxCell>
        <mxCell id="3nuBFxr9cyL0pnOWT2aG-7" value="3.친구목록정보" style="verticalAlign=bottom;endArrow=blockThin;dashed=1;endSize=8;shadow=0;strokeWidth=1;exitX=-0.2;exitY=0.98;exitDx=0;exitDy=0;exitPerimeter=0;endFill=1;entryX=1.4;entryY=0.681;entryDx=0;entryDy=0;entryPerimeter=0;" parent="1" target="3nuBFxr9cyL0pnOWT2aG-2" edge="1">
          <mxGeometry relative="1" as="geometry">
            <mxPoint x="-140" y="258" as="targetPoint" />
            <mxPoint x="23" y="258" as="sourcePoint" />
          </mxGeometry>
        </mxCell>
        <mxCell id="3nuBFxr9cyL0pnOWT2aG-8" value="2.유저ID" style="verticalAlign=bottom;endArrow=block;entryX=0;entryY=0;shadow=0;strokeWidth=1;" parent="1" source="3nuBFxr9cyL0pnOWT2aG-2" target="3nuBFxr9cyL0pnOWT2aG-6" edge="1">
          <mxGeometry relative="1" as="geometry">
            <mxPoint x="-45" y="160" as="sourcePoint" />
          </mxGeometry>
        </mxCell>
        <mxCell id="CvV1-d97VzqDH3h47T7x-1" value="유저" style="shape=umlLifeline;perimeter=lifelinePerimeter;container=1;collapsible=0;recursiveResize=0;rounded=0;shadow=0;strokeWidth=1;fillColor=#d5e8d4;strokeColor=default;" vertex="1" parent="1">
          <mxGeometry x="-380" y="80" width="100" height="2420" as="geometry" />
        </mxCell>
        <mxCell id="CvV1-d97VzqDH3h47T7x-10" value="5.이체금액 입력" style="verticalAlign=bottom;startArrow=oval;endArrow=block;startSize=8;shadow=0;strokeWidth=1;exitX=0.4;exitY=0;exitDx=0;exitDy=0;exitPerimeter=0;entryX=0.1;entryY=0;entryDx=0;entryDy=0;entryPerimeter=0;" edge="1" parent="CvV1-d97VzqDH3h47T7x-1" target="CvV1-d97VzqDH3h47T7x-8">
          <mxGeometry relative="1" as="geometry">
            <mxPoint x="52" y="330" as="sourcePoint" />
            <mxPoint x="228" y="330" as="targetPoint" />
          </mxGeometry>
        </mxCell>
        <mxCell id="3nuBFxr9cyL0pnOWT2aG-3" value="1.카카오톡 친구에게 이체 메뉴 접속 " style="verticalAlign=bottom;startArrow=oval;endArrow=block;startSize=8;shadow=0;strokeWidth=1;exitX=0.4;exitY=0;exitDx=0;exitDy=0;exitPerimeter=0;" parent="1" target="3nuBFxr9cyL0pnOWT2aG-2" edge="1">
          <mxGeometry relative="1" as="geometry">
            <mxPoint x="-331" y="150" as="sourcePoint" />
          </mxGeometry>
        </mxCell>
        <mxCell id="CvV1-d97VzqDH3h47T7x-9" value="4.친구목록출력" style="verticalAlign=bottom;endArrow=blockThin;dashed=1;endSize=8;shadow=0;strokeWidth=1;endFill=1;" edge="1" parent="1" target="CvV1-d97VzqDH3h47T7x-1">
          <mxGeometry relative="1" as="geometry">
            <mxPoint x="-135" y="320" as="targetPoint" />
            <mxPoint x="-150" y="310" as="sourcePoint" />
          </mxGeometry>
        </mxCell>
        <mxCell id="CvV1-d97VzqDH3h47T7x-13" value="계좌정보조회" style="shape=umlLifeline;perimeter=lifelinePerimeter;container=1;collapsible=0;recursiveResize=0;rounded=0;shadow=0;strokeWidth=1;fillColor=#fff2cc;strokeColor=default;" vertex="1" parent="1">
          <mxGeometry x="160" y="80" width="100" height="2440" as="geometry" />
        </mxCell>
        <mxCell id="CvV1-d97VzqDH3h47T7x-8" value="" style="points=[];perimeter=orthogonalPerimeter;rounded=0;shadow=0;strokeWidth=1;" vertex="1" parent="CvV1-d97VzqDH3h47T7x-13">
          <mxGeometry x="45" y="330" width="10" height="190" as="geometry" />
        </mxCell>
        <mxCell id="CvV1-d97VzqDH3h47T7x-15" value="계좌정보캐시" style="shape=umlLifeline;perimeter=lifelinePerimeter;container=1;collapsible=0;recursiveResize=0;rounded=0;shadow=0;strokeWidth=1;fillColor=#dae8fc;strokeColor=default;" vertex="1" parent="1">
          <mxGeometry x="340" y="80" width="100" height="2440" as="geometry" />
        </mxCell>
        <mxCell id="CvV1-d97VzqDH3h47T7x-16" value="" style="points=[];perimeter=orthogonalPerimeter;rounded=0;shadow=0;strokeWidth=1;" vertex="1" parent="CvV1-d97VzqDH3h47T7x-15">
          <mxGeometry x="45" y="340" width="10" height="160" as="geometry" />
        </mxCell>
        <mxCell id="CvV1-d97VzqDH3h47T7x-21" value="" style="points=[];perimeter=orthogonalPerimeter;rounded=0;shadow=0;strokeWidth=1;" vertex="1" parent="CvV1-d97VzqDH3h47T7x-15">
          <mxGeometry x="50" y="384" width="10" height="70" as="geometry" />
        </mxCell>
        <mxCell id="CvV1-d97VzqDH3h47T7x-20" value="6-1. 유저 ID" style="verticalAlign=bottom;startArrow=oval;endArrow=block;startSize=8;shadow=0;strokeWidth=1;exitX=1.1;exitY=0.069;exitDx=0;exitDy=0;exitPerimeter=0;entryX=0.1;entryY=0.007;entryDx=0;entryDy=0;entryPerimeter=0;" edge="1" parent="CvV1-d97VzqDH3h47T7x-15" target="CvV1-d97VzqDH3h47T7x-18">
          <mxGeometry relative="1" as="geometry">
            <mxPoint x="65" y="385.03999999999996" as="sourcePoint" />
            <mxPoint x="210" y="385" as="targetPoint" />
          </mxGeometry>
        </mxCell>
        <mxCell id="CvV1-d97VzqDH3h47T7x-17" value="계좌DB" style="shape=umlLifeline;perimeter=lifelinePerimeter;container=1;collapsible=0;recursiveResize=0;rounded=0;shadow=0;strokeWidth=1;labelBackgroundColor=none;fillColor=#dae8fc;strokeColor=default;" vertex="1" parent="1">
          <mxGeometry x="520" y="80" width="100" height="2440" as="geometry" />
        </mxCell>
        <mxCell id="CvV1-d97VzqDH3h47T7x-18" value="" style="points=[];perimeter=orthogonalPerimeter;rounded=0;shadow=0;strokeWidth=1;" vertex="1" parent="CvV1-d97VzqDH3h47T7x-17">
          <mxGeometry x="45" y="384" width="10" height="70" as="geometry" />
        </mxCell>
        <mxCell id="CvV1-d97VzqDH3h47T7x-19" value="6. 유저ID, 이체금액" style="verticalAlign=bottom;startArrow=oval;endArrow=block;startSize=8;shadow=0;strokeWidth=1;entryX=0.5;entryY=0;entryDx=0;entryDy=0;entryPerimeter=0;" edge="1" parent="1" target="CvV1-d97VzqDH3h47T7x-16">
          <mxGeometry relative="1" as="geometry">
            <mxPoint x="220" y="420" as="sourcePoint" />
            <mxPoint x="774" y="450" as="targetPoint" />
          </mxGeometry>
        </mxCell>
        <mxCell id="CvV1-d97VzqDH3h47T7x-22" value="6-2. 계좌정보목록" style="verticalAlign=bottom;endArrow=blockThin;dashed=1;endSize=8;shadow=0;strokeWidth=1;entryX=1;entryY=1;entryDx=0;entryDy=0;entryPerimeter=0;exitX=0.5;exitY=1;exitDx=0;exitDy=0;exitPerimeter=0;endFill=1;" edge="1" parent="1" source="CvV1-d97VzqDH3h47T7x-18" target="CvV1-d97VzqDH3h47T7x-21">
          <mxGeometry relative="1" as="geometry">
            <mxPoint x="410" y="534" as="targetPoint" />
            <mxPoint x="540" y="534" as="sourcePoint" />
          </mxGeometry>
        </mxCell>
        <mxCell id="CvV1-d97VzqDH3h47T7x-24" value="7. 출금가능계좌정보" style="verticalAlign=bottom;endArrow=blockThin;dashed=1;endSize=8;shadow=0;strokeWidth=1;entryX=0.9;entryY=0.869;entryDx=0;entryDy=0;entryPerimeter=0;exitX=0.5;exitY=1;exitDx=0;exitDy=0;exitPerimeter=0;endFill=1;" edge="1" parent="1">
          <mxGeometry relative="1" as="geometry">
            <mxPoint x="214" y="580.04" as="targetPoint" />
            <mxPoint x="390" y="580" as="sourcePoint" />
          </mxGeometry>
        </mxCell>
        <mxCell id="CvV1-d97VzqDH3h47T7x-25" value="8. 출금가능계좌출력" style="verticalAlign=bottom;endArrow=blockThin;dashed=1;endSize=8;shadow=0;strokeWidth=1;exitX=0.5;exitY=1;exitDx=0;exitDy=0;exitPerimeter=0;endFill=1;" edge="1" parent="1">
          <mxGeometry relative="1" as="geometry">
            <mxPoint x="-330.5" y="600" as="targetPoint" />
            <mxPoint x="206" y="600" as="sourcePoint" />
          </mxGeometry>
        </mxCell>
        <mxCell id="CvV1-d97VzqDH3h47T7x-55" value="" style="group" vertex="1" connectable="0" parent="1">
          <mxGeometry x="-367" y="338" width="1040" height="290" as="geometry" />
        </mxCell>
        <mxCell id="CvV1-d97VzqDH3h47T7x-53" value="" style="whiteSpace=wrap;html=1;labelBackgroundColor=#FFFFFF;strokeWidth=1;fillColor=none;" vertex="1" parent="CvV1-d97VzqDH3h47T7x-55">
          <mxGeometry width="1040.0000000000002" height="290" as="geometry" />
        </mxCell>
        <mxCell id="CvV1-d97VzqDH3h47T7x-54" value="loop" style="whiteSpace=wrap;html=1;labelBackgroundColor=#FFFFFF;strokeWidth=1;fillColor=default;" vertex="1" parent="CvV1-d97VzqDH3h47T7x-55">
          <mxGeometry width="75.83333333333334" height="38.666666666666664" as="geometry" />
        </mxCell>
        <mxCell id="CvV1-d97VzqDH3h47T7x-56" value="" style="group" vertex="1" connectable="0" parent="CvV1-d97VzqDH3h47T7x-55">
          <mxGeometry x="659" y="107" width="314" height="99" as="geometry" />
        </mxCell>
        <mxCell id="CvV1-d97VzqDH3h47T7x-58" value="opt" style="whiteSpace=wrap;html=1;labelBackgroundColor=#FFFFFF;strokeWidth=1;fillColor=default;" vertex="1" parent="CvV1-d97VzqDH3h47T7x-56">
          <mxGeometry width="57.8421052631579" height="21.21428571428572" as="geometry" />
        </mxCell>
        <mxCell id="CvV1-d97VzqDH3h47T7x-61" value="" style="group" vertex="1" connectable="0" parent="CvV1-d97VzqDH3h47T7x-56">
          <mxGeometry width="314.00000000000006" height="99.00000000000001" as="geometry" />
        </mxCell>
        <mxCell id="CvV1-d97VzqDH3h47T7x-57" value="" style="whiteSpace=wrap;html=1;labelBackgroundColor=#FFFFFF;strokeWidth=1;fillColor=none;" vertex="1" parent="CvV1-d97VzqDH3h47T7x-61">
          <mxGeometry width="314.00000000000006" height="99.00000000000001" as="geometry" />
        </mxCell>
        <mxCell id="CvV1-d97VzqDH3h47T7x-60" value="[계좌정보 미존재]" style="text;html=1;align=center;verticalAlign=middle;resizable=0;points=[];autosize=1;strokeColor=none;fillColor=none;fontSize=7;" vertex="1" parent="CvV1-d97VzqDH3h47T7x-61">
          <mxGeometry y="20.114285714285717" width="100" height="30" as="geometry" />
        </mxCell>
        <mxCell id="CvV1-d97VzqDH3h47T7x-63" value="9. 이체하기 버튼 클릭" style="verticalAlign=bottom;startArrow=oval;endArrow=block;startSize=8;shadow=0;strokeWidth=1;exitX=0.4;exitY=0;exitDx=0;exitDy=0;exitPerimeter=0;entryX=-0.1;entryY=0;entryDx=0;entryDy=0;entryPerimeter=0;" edge="1" parent="1" target="CvV1-d97VzqDH3h47T7x-65">
          <mxGeometry relative="1" as="geometry">
            <mxPoint x="-330" y="770" as="sourcePoint" />
            <mxPoint x="-154" y="770" as="targetPoint" />
          </mxGeometry>
        </mxCell>
        <mxCell id="CvV1-d97VzqDH3h47T7x-64" value="이체요청" style="shape=umlLifeline;perimeter=lifelinePerimeter;container=1;collapsible=0;recursiveResize=0;rounded=0;shadow=0;strokeWidth=1;fillColor=#fff2cc;strokeColor=default;" vertex="1" parent="1">
          <mxGeometry x="700" y="80" width="100" height="2440" as="geometry" />
        </mxCell>
        <mxCell id="CvV1-d97VzqDH3h47T7x-65" value="" style="points=[];perimeter=orthogonalPerimeter;rounded=0;shadow=0;strokeWidth=1;" vertex="1" parent="CvV1-d97VzqDH3h47T7x-64">
          <mxGeometry x="45" y="690" width="10" height="350" as="geometry" />
        </mxCell>
        <mxCell id="CvV1-d97VzqDH3h47T7x-66" value="이체내역DB" style="shape=umlLifeline;perimeter=lifelinePerimeter;container=1;collapsible=0;recursiveResize=0;rounded=0;shadow=0;strokeWidth=1;fillColor=#dae8fc;strokeColor=default;" vertex="1" parent="1">
          <mxGeometry x="880" y="80" width="100" height="2440" as="geometry" />
        </mxCell>
        <mxCell id="CvV1-d97VzqDH3h47T7x-67" value="" style="points=[];perimeter=orthogonalPerimeter;rounded=0;shadow=0;strokeWidth=1;" vertex="1" parent="CvV1-d97VzqDH3h47T7x-66">
          <mxGeometry x="45" y="750" width="10" height="70" as="geometry" />
        </mxCell>
        <mxCell id="CvV1-d97VzqDH3h47T7x-84" value="" style="points=[];perimeter=orthogonalPerimeter;rounded=0;shadow=0;strokeWidth=1;" vertex="1" parent="CvV1-d97VzqDH3h47T7x-66">
          <mxGeometry x="45" y="1210" width="10" height="70" as="geometry" />
        </mxCell>
        <mxCell id="CvV1-d97VzqDH3h47T7x-68" value="메시지전송" style="shape=umlLifeline;perimeter=lifelinePerimeter;container=1;collapsible=0;recursiveResize=0;rounded=0;shadow=0;strokeWidth=1;fillColor=#fff2cc;strokeColor=default;" vertex="1" parent="1">
          <mxGeometry x="1060" y="80" width="100" height="2440" as="geometry" />
        </mxCell>
        <mxCell id="CvV1-d97VzqDH3h47T7x-69" value="" style="points=[];perimeter=orthogonalPerimeter;rounded=0;shadow=0;strokeWidth=1;" vertex="1" parent="CvV1-d97VzqDH3h47T7x-68">
          <mxGeometry x="45" y="860" width="10" height="70" as="geometry" />
        </mxCell>
        <mxCell id="CvV1-d97VzqDH3h47T7x-71" value="10. 이체요청정보(계좌ID, 수신자ID,요청일자, 요청일시, 금액) " style="verticalAlign=bottom;startArrow=oval;endArrow=block;startSize=8;shadow=0;strokeWidth=1;exitX=1.031;exitY=0.172;exitDx=0;exitDy=0;exitPerimeter=0;entryX=0.068;entryY=0;entryDx=0;entryDy=0;entryPerimeter=0;" edge="1" parent="1" source="CvV1-d97VzqDH3h47T7x-65" target="CvV1-d97VzqDH3h47T7x-67">
          <mxGeometry relative="1" as="geometry">
            <mxPoint x="760" y="830" as="sourcePoint" />
            <mxPoint x="930" y="830" as="targetPoint" />
          </mxGeometry>
        </mxCell>
        <mxCell id="CvV1-d97VzqDH3h47T7x-72" value="12. 수신자ID, 이체요청정보" style="verticalAlign=bottom;startArrow=oval;endArrow=block;startSize=8;shadow=0;strokeWidth=1;exitX=0.986;exitY=0.485;exitDx=0;exitDy=0;exitPerimeter=0;entryX=-0.014;entryY=-0.003;entryDx=0;entryDy=0;entryPerimeter=0;" edge="1" parent="1" source="CvV1-d97VzqDH3h47T7x-65" target="CvV1-d97VzqDH3h47T7x-69">
          <mxGeometry relative="1" as="geometry">
            <mxPoint x="765.3100000000004" y="940.1999999999998" as="sourcePoint" />
            <mxPoint x="935.6800000000003" y="940" as="targetPoint" />
          </mxGeometry>
        </mxCell>
        <mxCell id="CvV1-d97VzqDH3h47T7x-73" value="11. 요청정상여부 " style="verticalAlign=bottom;endArrow=blockThin;dashed=1;endSize=8;shadow=0;strokeWidth=1;exitX=0.009;exitY=0.991;exitDx=0;exitDy=0;exitPerimeter=0;endFill=1;entryX=1.036;entryY=0.373;entryDx=0;entryDy=0;entryPerimeter=0;" edge="1" parent="1" source="CvV1-d97VzqDH3h47T7x-67" target="CvV1-d97VzqDH3h47T7x-65">
          <mxGeometry relative="1" as="geometry">
            <mxPoint x="760" y="900" as="targetPoint" />
            <mxPoint x="925" y="898.82" as="sourcePoint" />
          </mxGeometry>
        </mxCell>
        <mxCell id="CvV1-d97VzqDH3h47T7x-74" value="유저(수신자)" style="shape=umlLifeline;perimeter=lifelinePerimeter;container=1;collapsible=0;recursiveResize=0;rounded=0;shadow=0;strokeWidth=1;fillColor=#d5e8d4;strokeColor=default;" vertex="1" parent="1">
          <mxGeometry x="1420" y="80" width="100" height="2430" as="geometry" />
        </mxCell>
        <mxCell id="CvV1-d97VzqDH3h47T7x-88" value="" style="points=[];perimeter=orthogonalPerimeter;rounded=0;shadow=0;strokeWidth=1;" vertex="1" parent="CvV1-d97VzqDH3h47T7x-74">
          <mxGeometry x="45" y="880" width="10" height="710" as="geometry" />
        </mxCell>
        <mxCell id="CvV1-d97VzqDH3h47T7x-75" value="13. 이체요청정보 메시지 발송" style="verticalAlign=bottom;startArrow=oval;endArrow=block;startSize=8;shadow=0;strokeWidth=1;exitX=1.071;exitY=0.235;exitDx=0;exitDy=0;exitPerimeter=0;entryX=0;entryY=0.001;entryDx=0;entryDy=0;entryPerimeter=0;" edge="1" parent="1" target="CvV1-d97VzqDH3h47T7x-88">
          <mxGeometry relative="1" as="geometry">
            <mxPoint x="1115.71" y="960.45" as="sourcePoint" />
            <mxPoint x="1289.5" y="960.45" as="targetPoint" />
          </mxGeometry>
        </mxCell>
        <mxCell id="CvV1-d97VzqDH3h47T7x-76" value="13. 발송정상여부 " style="verticalAlign=bottom;endArrow=blockThin;dashed=1;endSize=8;shadow=0;strokeWidth=1;exitX=0.008;exitY=1;exitDx=0;exitDy=0;exitPerimeter=0;endFill=1;entryX=1.123;entryY=0.687;entryDx=0;entryDy=0;entryPerimeter=0;" edge="1" parent="1" source="CvV1-d97VzqDH3h47T7x-69" target="CvV1-d97VzqDH3h47T7x-65">
          <mxGeometry relative="1" as="geometry">
            <mxPoint x="850" y="1011" as="targetPoint" />
            <mxPoint x="1099.73" y="1010.0000000000001" as="sourcePoint" />
          </mxGeometry>
        </mxCell>
        <mxCell id="CvV1-d97VzqDH3h47T7x-77" value="14. 이체요청 완료 메시지 출력 " style="verticalAlign=bottom;endArrow=blockThin;dashed=1;endSize=8;shadow=0;strokeWidth=1;exitX=0.5;exitY=1;exitDx=0;exitDy=0;exitPerimeter=0;endFill=1;" edge="1" parent="1" source="CvV1-d97VzqDH3h47T7x-65" target="CvV1-d97VzqDH3h47T7x-1">
          <mxGeometry relative="1" as="geometry">
            <mxPoint x="392.00000000000045" y="1120.4499999999998" as="targetPoint" />
            <mxPoint x="740.8500000000008" y="1120" as="sourcePoint" />
          </mxGeometry>
        </mxCell>
        <mxCell id="CvV1-d97VzqDH3h47T7x-79" value="15. 이체 내역 메뉴 접속" style="verticalAlign=bottom;startArrow=oval;endArrow=block;startSize=8;shadow=0;strokeWidth=1;exitX=0.5;exitY=0.484;exitDx=0;exitDy=0;exitPerimeter=0;entryX=-0.015;entryY=0.004;entryDx=0;entryDy=0;entryPerimeter=0;" edge="1" parent="1" source="CvV1-d97VzqDH3h47T7x-1" target="CvV1-d97VzqDH3h47T7x-82">
          <mxGeometry relative="1" as="geometry">
            <mxPoint x="-327" y="1250" as="sourcePoint" />
            <mxPoint x="747" y="1250" as="targetPoint" />
          </mxGeometry>
        </mxCell>
        <mxCell id="CvV1-d97VzqDH3h47T7x-81" value="이체내역조회" style="shape=umlLifeline;perimeter=lifelinePerimeter;container=1;collapsible=0;recursiveResize=0;rounded=0;shadow=0;strokeWidth=1;fillColor=#fff2cc;strokeColor=default;" vertex="1" parent="1">
          <mxGeometry x="1240" y="80" width="100" height="2440" as="geometry" />
        </mxCell>
        <mxCell id="CvV1-d97VzqDH3h47T7x-82" value="" style="points=[];perimeter=orthogonalPerimeter;rounded=0;shadow=0;strokeWidth=1;" vertex="1" parent="CvV1-d97VzqDH3h47T7x-81">
          <mxGeometry x="45" y="1170" width="10" height="210" as="geometry" />
        </mxCell>
        <mxCell id="CvV1-d97VzqDH3h47T7x-83" value="16. 유저ID" style="verticalAlign=bottom;startArrow=none;endArrow=block;startSize=8;shadow=0;strokeWidth=1;exitX=0.002;exitY=0.189;exitDx=0;exitDy=0;exitPerimeter=0;entryX=0.99;entryY=0.002;entryDx=0;entryDy=0;entryPerimeter=0;startFill=0;" edge="1" parent="1" source="CvV1-d97VzqDH3h47T7x-82" target="CvV1-d97VzqDH3h47T7x-84">
          <mxGeometry relative="1" as="geometry">
            <mxPoint x="-320" y="1261.2800000000002" as="sourcePoint" />
            <mxPoint x="1040" y="1290" as="targetPoint" />
          </mxGeometry>
        </mxCell>
        <mxCell id="CvV1-d97VzqDH3h47T7x-85" value="14. 이체요청내역 목록 " style="verticalAlign=bottom;endArrow=blockThin;dashed=1;endSize=8;shadow=0;strokeWidth=1;exitX=1.047;exitY=1.008;exitDx=0;exitDy=0;exitPerimeter=0;endFill=1;entryX=-0.049;entryY=0.526;entryDx=0;entryDy=0;entryPerimeter=0;" edge="1" parent="1" source="CvV1-d97VzqDH3h47T7x-84" target="CvV1-d97VzqDH3h47T7x-82">
          <mxGeometry relative="1" as="geometry">
            <mxPoint x="560" y="1410.45" as="targetPoint" />
            <mxPoint x="908.8499999999999" y="1410" as="sourcePoint" />
          </mxGeometry>
        </mxCell>
        <mxCell id="CvV1-d97VzqDH3h47T7x-87" value="16. 이체요청내역 목록출력" style="verticalAlign=bottom;endArrow=blockThin;dashed=1;endSize=8;shadow=0;strokeWidth=1;endFill=1;exitX=0;exitY=1.001;exitDx=0;exitDy=0;exitPerimeter=0;" edge="1" parent="1" source="CvV1-d97VzqDH3h47T7x-82">
          <mxGeometry relative="1" as="geometry">
            <mxPoint x="-330" y="1460" as="targetPoint" />
            <mxPoint x="1410" y="1460" as="sourcePoint" />
          </mxGeometry>
        </mxCell>
        <mxCell id="CvV1-d97VzqDH3h47T7x-89" value="이체확정" style="shape=umlLifeline;perimeter=lifelinePerimeter;container=1;collapsible=0;recursiveResize=0;rounded=0;shadow=0;strokeWidth=1;fillColor=#fff2cc;strokeColor=default;" vertex="1" parent="1">
          <mxGeometry x="1600" y="80" width="100" height="2440" as="geometry" />
        </mxCell>
        <mxCell id="CvV1-d97VzqDH3h47T7x-90" value="" style="points=[];perimeter=orthogonalPerimeter;rounded=0;shadow=0;strokeWidth=1;" vertex="1" parent="CvV1-d97VzqDH3h47T7x-89">
          <mxGeometry x="45" y="940" width="10" height="420" as="geometry" />
        </mxCell>
        <mxCell id="CvV1-d97VzqDH3h47T7x-94" value="" style="points=[];perimeter=orthogonalPerimeter;rounded=0;shadow=0;strokeWidth=1;" vertex="1" parent="CvV1-d97VzqDH3h47T7x-89">
          <mxGeometry x="50" y="970" width="10" height="80" as="geometry" />
        </mxCell>
        <mxCell id="CvV1-d97VzqDH3h47T7x-91" value="13-1. 받기 버튼 클릭 " style="verticalAlign=bottom;startArrow=oval;endArrow=block;startSize=8;shadow=0;strokeWidth=1;exitX=1.071;exitY=0.235;exitDx=0;exitDy=0;exitPerimeter=0;entryX=-0.122;entryY=0.047;entryDx=0;entryDy=0;entryPerimeter=0;" edge="1" parent="1" target="CvV1-d97VzqDH3h47T7x-90">
          <mxGeometry relative="1" as="geometry">
            <mxPoint x="1475.35" y="1039.9999999999998" as="sourcePoint" />
            <mxPoint x="1640" y="1040" as="targetPoint" />
          </mxGeometry>
        </mxCell>
        <mxCell id="CvV1-d97VzqDH3h47T7x-92" value="계좌DB" style="shape=umlLifeline;perimeter=lifelinePerimeter;container=1;collapsible=0;recursiveResize=0;rounded=0;shadow=0;strokeWidth=1;labelBackgroundColor=none;fillColor=#dae8fc;strokeColor=default;" vertex="1" parent="1">
          <mxGeometry x="1780" y="80" width="100" height="2440" as="geometry" />
        </mxCell>
        <mxCell id="CvV1-d97VzqDH3h47T7x-93" value="" style="points=[];perimeter=orthogonalPerimeter;rounded=0;shadow=0;strokeWidth=1;" vertex="1" parent="CvV1-d97VzqDH3h47T7x-92">
          <mxGeometry x="45" y="970" width="10" height="70" as="geometry" />
        </mxCell>
        <mxCell id="CvV1-d97VzqDH3h47T7x-95" value="13-2. 유저ID" style="verticalAlign=bottom;startArrow=oval;endArrow=block;startSize=8;shadow=0;strokeWidth=1;exitX=1.071;exitY=0.235;exitDx=0;exitDy=0;exitPerimeter=0;entryX=-0.006;entryY=0.143;entryDx=0;entryDy=0;entryPerimeter=0;" edge="1" parent="1" target="CvV1-d97VzqDH3h47T7x-93">
          <mxGeometry relative="1" as="geometry">
            <mxPoint x="1660" y="1059.9999999999998" as="sourcePoint" />
            <mxPoint x="1830.29" y="1060.16" as="targetPoint" />
          </mxGeometry>
        </mxCell>
        <mxCell id="CvV1-d97VzqDH3h47T7x-96" value="13-3. 유효계좌정보 " style="verticalAlign=bottom;endArrow=blockThin;dashed=1;endSize=8;shadow=0;strokeWidth=1;endFill=1;exitX=-0.15;exitY=1.007;exitDx=0;exitDy=0;exitPerimeter=0;entryX=1.014;entryY=0.884;entryDx=0;entryDy=0;entryPerimeter=0;" edge="1" parent="1" source="CvV1-d97VzqDH3h47T7x-93" target="CvV1-d97VzqDH3h47T7x-94">
          <mxGeometry relative="1" as="geometry">
            <mxPoint x="1660" y="1120" as="targetPoint" />
            <mxPoint x="2025" y="1130.21" as="sourcePoint" />
          </mxGeometry>
        </mxCell>
        <mxCell id="CvV1-d97VzqDH3h47T7x-98" value="" style="group" vertex="1" connectable="0" parent="1">
          <mxGeometry x="2030" y="1040" width="314" height="99" as="geometry" />
        </mxCell>
        <mxCell id="CvV1-d97VzqDH3h47T7x-99" value="opt" style="whiteSpace=wrap;html=1;labelBackgroundColor=#FFFFFF;strokeWidth=1;fillColor=default;" vertex="1" parent="CvV1-d97VzqDH3h47T7x-98">
          <mxGeometry width="57.8421052631579" height="21.21428571428572" as="geometry" />
        </mxCell>
        <mxCell id="CvV1-d97VzqDH3h47T7x-100" value="" style="group" vertex="1" connectable="0" parent="CvV1-d97VzqDH3h47T7x-98">
          <mxGeometry width="314.00000000000006" height="99.00000000000001" as="geometry" />
        </mxCell>
        <mxCell id="CvV1-d97VzqDH3h47T7x-101" value="" style="whiteSpace=wrap;html=1;labelBackgroundColor=#FFFFFF;strokeWidth=1;fillColor=none;" vertex="1" parent="CvV1-d97VzqDH3h47T7x-100">
          <mxGeometry width="314.00000000000006" height="99.00000000000001" as="geometry" />
        </mxCell>
        <mxCell id="CvV1-d97VzqDH3h47T7x-102" value="[유효계좌정보존재]" style="text;html=1;align=center;verticalAlign=middle;resizable=0;points=[];autosize=1;strokeColor=none;fillColor=none;fontSize=7;" vertex="1" parent="CvV1-d97VzqDH3h47T7x-100">
          <mxGeometry x="-5" y="20.114285714285717" width="110" height="30" as="geometry" />
        </mxCell>
        <mxCell id="CvV1-d97VzqDH3h47T7x-103" value="" style="points=[];perimeter=orthogonalPerimeter;rounded=0;shadow=0;strokeWidth=1;" vertex="1" parent="1">
          <mxGeometry x="1650" y="1181" width="10" height="80" as="geometry" />
        </mxCell>
        <mxCell id="CvV1-d97VzqDH3h47T7x-105" value="13-3. 유효계좌정보 " style="verticalAlign=bottom;endArrow=blockThin;dashed=1;endSize=8;shadow=0;strokeWidth=1;endFill=1;exitX=-0.15;exitY=1.007;exitDx=0;exitDy=0;exitPerimeter=0;entryX=1.014;entryY=0.884;entryDx=0;entryDy=0;entryPerimeter=0;" edge="1" parent="1">
          <mxGeometry relative="1" as="geometry">
            <mxPoint x="1480.0000000000005" y="1340.2299999999998" as="targetPoint" />
            <mxPoint x="1643.3600000000001" y="1340.0000000000002" as="sourcePoint" />
          </mxGeometry>
        </mxCell>
        <mxCell id="CvV1-d97VzqDH3h47T7x-106" value="이체내역DB" style="shape=umlLifeline;perimeter=lifelinePerimeter;container=1;collapsible=0;recursiveResize=0;rounded=0;shadow=0;strokeWidth=1;fillColor=#dae8fc;strokeColor=default;" vertex="1" parent="1">
          <mxGeometry x="1960" y="80" width="100" height="2440" as="geometry" />
        </mxCell>
        <mxCell id="CvV1-d97VzqDH3h47T7x-108" value="" style="points=[];perimeter=orthogonalPerimeter;rounded=0;shadow=0;strokeWidth=1;" vertex="1" parent="CvV1-d97VzqDH3h47T7x-106">
          <mxGeometry x="45" y="1101" width="10" height="70" as="geometry" />
        </mxCell>
        <mxCell id="CvV1-d97VzqDH3h47T7x-109" value="13-4. 수신계좌정보" style="verticalAlign=bottom;startArrow=oval;endArrow=block;startSize=8;shadow=0;strokeWidth=1;exitX=1.049;exitY=0.244;exitDx=0;exitDy=0;exitPerimeter=0;entryX=0.029;entryY=0.27;entryDx=0;entryDy=0;entryPerimeter=0;" edge="1" parent="1" source="CvV1-d97VzqDH3h47T7x-103" target="CvV1-d97VzqDH3h47T7x-108">
          <mxGeometry relative="1" as="geometry">
            <mxPoint x="1660.06" y="1200" as="sourcePoint" />
            <mxPoint x="1824.9999999999995" y="1200.0099999999998" as="targetPoint" />
          </mxGeometry>
        </mxCell>
      </root>
    </mxGraphModel>
  </diagram>
</mxfile>
